<svg fill="#FFFFFF" xmlns="http://www.w3.org/2000/svg" viewBox="0 0 48 48" width="48px" height="48px">
  <path d="M24 4C12.972 4 4 12.972 4 24s8.972 20 20 20 20-8.972 20-20S35.028 4 24 4zm0 5c4.785 0 5.355.018 7.23.105 1.75.082 2.69.37 3.32.62.805.31 1.38.68 1.985 1.285.605.605.975 1.18 1.285 1.985.25.63.538 1.57.62 3.32.087 1.875.105 2.445.105 7.23s-.018 5.355-.105 7.23c-.082 1.75-.37 2.69-.62 3.32-.31.805-.68 1.38-1.285 1.985-.605.605-1.18.975-1.985 1.285-.63.25-1.57.538-3.32.62-1.875.087-2.445.105-7.23.105s-5.355-.018-7.23-.105c-1.75-.082-2.69-.37-3.32-.62-.805-.31-1.38-.68-1.985-1.285-.605-.605-.975-1.18-1.285-1.985-.25-.63-.538-1.57-.62-3.32-.087-1.875-.105-2.445-.105-7.23s.018-5.355.105-7.23c.082-1.75.37-2.69.62-3.32.31-.805.68-1.38 1.285-1.985.605-.605 1.18-.975 1.985-1.285.63-.25 1.57-.538 3.32-.62C18.645 9.018 19.215 9 24 9zm0 5.5a9.5 9.5 0 100 19 9.5 9.5 0 000-19zm0 3a6.5 6.5 0 110 13 6.5 6.5 0 010-13zm8.5-3.75a1.25 1.25 0 110 2.5 1.25 1.25 0 010-2.5z"/>
</svg>
