<svg xmlns="http://www.w3.org/2000/svg" viewBox="0 0 24 24" width="48px" height ="48px" fill="#FFFFFF">
    <path d="M23.953 4.57c-.885.392-1.83.656-2.825.775a4.935 4.935 0 002.163-2.723c-.951.555-2.005.956-3.127 1.172a4.918 4.918 0 00-8.384 4.482C7.691 8.094 4.066 6.13 1.64 3.161c-.427.732-.666 1.577-.666 2.475 0 1.707.87 3.213 2.188 4.096a4.902 4.902 0 01-2.224-.616v.061c0 2.384 1.693 4.373 3.946 4.826a4.926 4.926 0 01-2.218.084c.624 1.953 2.433 3.375 4.574 3.415a9.87 9.87 0 01-6.102 2.103c-.396 0-.788-.023-1.175-.067a13.93 13.93 0 007.548 2.211c9.056 0 14-7.496 14-13.986z"/>
</svg>